<svg width="20" height="18" viewBox="0 0 20 18" fill="none" xmlns="http://www.w3.org/2000/svg">
<path d="M1.4 17.4L18.85 9.92C19.0304 9.84315 19.1842 9.71497 19.2923 9.55139C19.4004 9.38782 19.4581 9.19607 19.4581 9C19.4581 8.80392 19.4004 8.61217 19.2923 8.4486C19.1842 8.28502 19.0304 8.15684 18.85 8.07999L1.4 0.599995C1.2489 0.534089 1.08377 0.506838 0.919509 0.520698C0.755246 0.534558 0.597018 0.589094 0.459098 0.679387C0.321179 0.769679 0.207908 0.892887 0.129505 1.03789C0.0511009 1.1829 0.010031 1.34515 0.00999999 1.50999L0 6.11999C0 6.61999 0.37 7.04999 0.87 7.10999L15 9L0.87 10.88C0.37 10.95 0 11.38 0 11.88L0.00999999 16.49C0.00999999 17.2 0.74 17.69 1.4 17.4Z" fill="white"/>
</svg>
